<?xml version="1.0" standalone="no"?>
<!DOCTYPE svg PUBLIC "-//W3C//DTD SVG 20010904//EN"
 "http://www.w3.org/TR/2001/REC-SVG-20010904/DTD/svg10.dtd">
<svg version="1.0" xmlns="http://www.w3.org/2000/svg"
 width="1600.000000pt" height="1900.000000pt" viewBox="0 0 1600.000000 1900.000000"
 preserveAspectRatio="xMidYMid meet">
<metadata>
Created by potrace 1.16, written by Peter Selinger 2001-2019
</metadata>
<g transform="translate(0.000000,1900.000000) scale(0.100000,-0.100000)"
fill="#000000" stroke="none">
<path d="M6381 18479 c-741 -43 -1536 -282 -2181 -657 -595 -346 -1059 -824
-1182 -1218 l-22 -71 -101 -6 c-333 -21 -738 -175 -1110 -422 -229 -153 -413
-313 -555 -482 -191 -229 -289 -416 -351 -673 -22 -88 -17 -308 10 -405 23
-87 93 -240 140 -308 85 -123 249 -282 391 -379 41 -28 77 -53 79 -54 2 -2 -7
-54 -19 -116 -20 -99 -22 -132 -17 -268 8 -191 31 -301 123 -565 126 -366 154
-454 157 -501 2 -43 0 -48 -23 -55 -44 -12 -183 -9 -255 6 -73 16 -198 70
-250 109 -56 42 -58 39 -17 -20 62 -92 160 -177 255 -223 86 -42 192 -66 253
-59 l36 4 -6 -40 c-18 -112 -93 -242 -206 -356 -95 -96 -202 -171 -445 -308
-186 -106 -248 -151 -290 -210 -27 -40 -30 -51 -30 -120 0 -60 5 -87 23 -124
61 -124 237 -267 565 -457 113 -66 137 -89 137 -131 0 -34 -46 -106 -99 -153
-52 -47 -170 -125 -229 -151 -24 -11 -42 -26 -42 -35 1 -54 24 -163 44 -206
29 -65 115 -158 189 -206 58 -38 211 -99 248 -99 10 0 19 -3 19 -6 0 -4 -25
-33 -55 -65 -90 -97 -146 -209 -161 -320 -7 -54 15 -142 51 -199 54 -85 179
-161 335 -201 47 -12 90 -26 97 -31 6 -5 21 -30 33 -55 35 -75 36 -163 6 -362
-52 -331 -33 -433 99 -533 232 -175 632 -205 1218 -92 307 59 563 127 1117
295 350 107 470 139 518 139 51 0 116 -46 221 -156 114 -119 211 -265 311
-469 202 -411 329 -903 392 -1515 20 -198 17 -863 -5 -1075 -103 -979 -399
-1863 -900 -2685 -276 -452 -616 -885 -1018 -1295 -65 -66 -118 -124 -118
-130 1 -12 67 -32 304 -90 914 -225 1685 -162 2370 194 410 213 745 479 1358
1079 316 309 499 483 647 612 560 490 1089 752 1690 836 130 18 502 28 632 17
53 -5 95 -6 92 -2 -2 4 -36 26 -76 49 -487 288 -988 734 -1364 1215 -103 132
-288 408 -380 566 -97 168 -253 491 -327 679 -255 647 -381 1346 -364 2010 10
352 37 568 109 855 70 280 171 521 305 725 184 279 373 470 928 934 323 271
470 403 630 567 225 231 349 385 464 578 283 475 472 1092 547 1786 21 195 29
691 15 890 -42 579 -178 1120 -401 1599 -22 48 -40 89 -38 91 9 7 184 -18 253
-35 597 -154 1047 -712 1187 -1475 30 -160 32 -505 5 -660 -52 -297 -169 -638
-368 -1070 -40 -88 -163 -340 -272 -560 -344 -690 -471 -980 -585 -1325 -188
-570 -200 -1112 -36 -1600 45 -132 154 -357 231 -475 264 -403 693 -749 1104
-889 185 -63 316 -81 599 -81 268 0 363 11 567 65 773 203 1314 773 1587 1673
20 65 36 123 36 129 0 7 -26 -31 -57 -82 -100 -162 -266 -316 -431 -399 -165
-83 -331 -117 -536 -108 -263 11 -479 106 -648 285 -153 163 -221 383 -188
603 37 244 167 521 480 1019 81 129 214 341 295 470 620 986 908 1649 1039
2390 88 494 83 994 -15 1483 -43 216 -81 357 -159 587 -210 628 -510 1142
-903 1547 -355 366 -712 604 -1165 780 -557 215 -1218 254 -1809 108 -247 -61
-427 -129 -659 -249 -256 -132 -451 -274 -669 -487 l-130 -127 -80 59 c-44 33
-145 101 -225 153 -918 592 -1904 856 -2969 795z"/>
</g>
</svg>
